<?xml version="1.0" encoding="utf-8"?>
<!-- Generator: Adobe Illustrator 25.2.3, SVG Export Plug-In . SVG Version: 6.00 Build 0)  -->
<svg version="1.1" id="Calque_1" xmlns="http://www.w3.org/2000/svg" xmlns:xlink="http://www.w3.org/1999/xlink" x="0px" y="0px"
	 viewBox="0 0 331.5 112.7" style="enable-background:new 0 0 331.5 112.7;" xml:space="preserve">
<style type="text/css">
	.st0{fill:#F37121;}
</style>
<g>
	
		<rect x="145" y="23.7" transform="matrix(0.9962 -8.711948e-02 8.711948e-02 0.9962 -4.3813 13.6591)" class="st0" width="18.6" height="66.7"/>
	<polygon class="st0" points="233.2,16.6 263.9,13.9 265.1,27.2 252.5,28.3 253.6,41 264.8,40 265.9,52.7 254.7,53.7 257.2,81.7 
		239.1,83.3 	"/>
	
		<rect x="271.2" y="12.6" transform="matrix(0.9962 -8.713078e-02 8.713078e-02 0.9962 -2.9486 24.5983)" class="st0" width="18.2" height="67"/>
	<polygon class="st0" points="330.2,8.1 290.6,11.5 291.8,24.9 302.5,24 307.2,77.3 325.3,75.8 320.6,22.4 331.4,21.4 	"/>
	
		<rect x="219.1" y="44.4" transform="matrix(0.9962 -8.710865e-02 8.710865e-02 0.9962 -3.4803 19.8058)" class="st0" width="12.2" height="10.8"/>
	<path class="st0" d="M-0.1,37.1l18.5-1.6c5.8-0.5,11.3-0.6,14.3,0c3.1,0.6,5.7,2.1,7.7,4.5c2.1,2.4,3.4,6.5,3.9,12.3
		c0.3,3.9-0.1,6.7-1.2,8.3c-1.2,1.6-3.6,3-7.4,4.2c4.4,0.5,7.4,1.8,9.1,3.7c1.7,2,2.8,5.1,3.1,9.4l0.5,6.2c0.4,4.5,0.1,7.9-0.8,10.1
		c-0.9,2.3-2.5,3.9-4.9,4.9c-2.3,1-7.2,1.8-14.7,2.5l-22.4,2L-0.1,37.1z M19.4,46.9l1.3,14.8c0.8-0.1,2.4-0.2,2.8-0.3
		c1.8-0.2,2.9-0.7,3.4-1.6c0.4-0.9,0.5-3.3,0.1-7.2c-0.2-2.1-0.5-3.5-1-4.3s-1.1-1.3-1.7-1.4C23.6,46.6,21.3,46.7,19.4,46.9
		 M21.6,72l1.6,18.6c2.6-0.3,5.2-0.9,5.9-1.7c0.7-0.7,0.9-2.5,0.6-5.1l-0.5-6.2c-0.2-2.8-0.7-4.5-1.4-5.1
		C27.1,71.9,24.4,71.8,21.6,72"/>
	<path class="st0" d="M214.1,45.4L195.4,47l-0.7-7.5c-0.3-3.4-0.7-5.4-1.1-6.2c-0.5-0.8-1.4-1.1-2.8-1c-1.5,0.1-2.5,0.7-2.8,1.8
		s-0.3,3.3,0,6.6l2.4,27c0.3,3.2,0.7,5.3,1.2,6.3c0.5,0.9,1.5,1.4,2.9,1.2c1.4-0.1,2.3-0.7,2.6-1.7s0.4-3.4,0-7l-0.8-8.6l18.7-1.6
		l0.4,4.8c0.6,6.9,0.5,11.8-0.3,14.8s-2.9,5.7-6.3,8.2c-3.4,2.5-7.8,4-13,4.4c-5.5,0.5-10.1,0-13.8-1.6c-3.7-1.5-6.3-3.9-7.7-7
		s-2.4-8-3-14.5L169.6,46c-0.4-4.8-0.6-8.4-0.4-10.8c0.1-2.4,1-4.8,2.6-7.2s3.9-4.3,6.9-5.9c3-1.5,6.6-2.5,10.6-2.9
		c5.5-0.5,10.2,0.1,13.9,1.8c3.8,1.7,6.3,3.9,7.7,6.7s2.3,7.4,2.9,13.6L214.1,45.4z"/>
	<path class="st0" d="M82.7,30l5.7-1l-17,0.7l7-9.6l-8.5,8.2l-2-12L68,28.5l-9.5-6.4l8.2,7.9l-16.4,2.2h5.6l-3.6,67.2l19.2-1.7
		l0.1-12l6.6-0.6l2,11.9l18.9-1.7L82.7,30z M90.1,93.8c-1.3,0.2-3.3-0.7-4.4-0.9c-0.7-0.1-1.5,0.1-1.9-0.4c-0.1-0.4-0.1-0.8-0.2-1.1
		c-0.4-0.3-0.8-0.6-1.2-1c-0.5-0.8-0.2-1.6-0.7-2.4c-0.9-1.6-2.3-3.3-3.3-4.9c-0.8-1.3-0.9-2.6-1.8-3.7c-0.5-0.6-1.3-1-1.8-1.6
		c-1-1.3-2.3-4.6-4.3-4.7c-1.4,2.7-2.8,5.6-3.6,8.8c0,0.8,0,1.5,0,2.3c-0.2,0.6-0.7,1.3-0.9,2.1c-0.2,0.7-0.4,3-0.2,3.7
		c0.1,0.3-0.2,0.6-0.1,1.3c0.1,0.6,0.3,2-0.3,2.3c-0.4,0.1-0.9,0.2-1.4,0.5c-0.2,0.1-1.7,1.8-2,2.2c-1.5,0.1-2.7-0.3-2.7-0.6
		c0-0.3-0.4-1.1,0.3-1.5c0.3-0.2,1-1.1,0.9-1.5c-0.1-0.2,0.5-0.9,0.6-1.4c0.2-0.9,0.1-1.3,0.3-2.2c0.1-1.6,0.2-3.2,0.3-4.9
		c0.4-1.7,1.1-3.2,1.4-4.9c-0.1-0.9,0.2-8.5,0.6-10.4c0.1-0.5,0.4-1.3,0.4-1.8c0.1-0.5,0.6-1.3,0.8-1.7c0.1-0.5-0.3-0.6-0.1-1.1
		c0.3-0.7,0.9-1.4,1.2-2.1c0.4-1.1,0.3-2,0.8-3.1c0.4-0.9,1.2-2,1.5-2.9c0.2-0.8,1.2-3,1.4-3.5c0.3-1.1-0.3-2.4-0.1-3.7
		c0.4-2.3,0.2-5.2-0.4-7.2c-0.5-1.4,0-3.8,0.3-4.7l0,0c0,0,0,0,0-0.1c0-0.1,0-0.1,0-0.1c0-0.1-0.1-0.2-0.1-0.5l0,0v-0.1l0,0
		c-0.1-0.1-0.2-0.2-0.3-0.3c0-0.1-0.1-0.2-0.1-0.2v-0.1c0,0,0-0.1-0.1-0.1l-0.1-0.1c0-0.1,0-0.1,0-0.2c0-0.1,0-0.1,0-0.2
		c0-0.1,0-0.2,0-0.2c0-0.1,0-0.2,0-0.2c0-0.1,0.1-0.1,0.2-0.1h0.1c0.1,0,0.1,0,0.2-0.1c0,0,0,0,0-0.1c0-0.1,0-0.1,0.1-0.2
		c0,0,0-0.1,0.1-0.1c0-0.1,0.1-0.1,0.1-0.1s0.1,0,0.2,0s0.1,0,0.2,0h0.1c0.1,0,0.1-0.1,0.2-0.1c0,0,0,0,0-0.1c0,0,0-0.1,0.1-0.2
		c0,0,0-0.1,0.1-0.1s0.1-0.1,0.2,0c0.1,0,0.2,0.1,0.2,0.1c0.1,0,0.2,0.1,0.2,0.1c0.1,0,0.1,0,0.2,0s0.1-0.1,0.2-0.1s0.2,0,0.2,0.1
		c0,0.1,0.1,0.1,0.1,0.2c0,0.1,0,0.2,0,0.3s0,0.2,0,0.2c0,0.1,0,0.1,0,0.2c0,0.1,0,0.3-0.1,0.4v0.1v0.1c0.1,0.1,0.1,0.1,0.2,0.2l0,0
		c0.1,0,0.1,0.1,0.1,0.2c0,0.1,0,0.2,0,0.3c0,0,0,0,0,0.1c0,0.1-0.1,0.1-0.1,0.2c0,0-0.1,0-0.1,0.1c-0.2,0.1-0.3,0.2-0.5,0.3l0,0
		c0,0,0,0.1,0,0.2l0,0c0,0.2,0,0.4,0,0.6c0,0.1,0,0.1,0,0.2c0,0.1,0,0.2,0,0.3c0.1,1.1,0.4,2.3,0.7,3.2c0.2,0.8-0.3,2.4,0.1,3.4
		c0.3,1,0.6,2.1,0.9,3.1c0,0.7,0.1,1.4,0.1,2.2c0.1,0.2,0.5,0.8,0.6,1c0.4,0.9,0.1,1.2,1.3,1.2c0-0.1-0.7-2-0.4-2.9
		c0.7-1.7-0.3-2.3,1.4-3c1-0.9,3.3-0.2,3.8,0.7c0.5,0.5,0.5,1.2,0.4,1.7c0.1,0.6-0.2,2.2-0.4,2.4c-0.3,0.5-0.6,1-0.9,1.5
		c-0.3,0.4-0.9,0.7-1.1,1.2c-0.9,2.2,1.5,3.5,1,5.4c-0.1,0.3-0.6,1.4-0.8,1.7c-0.4,0.3-0.7,0.6-1.1,1c-0.5,1-0.3,2-0.7,3.1
		c-0.2,0.5-0.8,1.5-0.4,2.3c0.1,0.4,0.6,0.7,0.8,1c0.1,0.5,0.2,1,0.2,1.5c0.5,1.1,1.5,2.2,2.1,3.3c0.9,2.1,1.1,4.4,2.2,6.2
		c0.6,1.1,1.9,1.9,2.6,2.9c0.8,1.1,0.8,2.4,1.6,3.5c1.2,1.6,1.7,4.1,3.6,5.1C92.9,92.6,90.4,93.7,90.1,93.8"/>
	<path class="st0" d="M137.9,45.3l-17.2,1.5l-0.4-4.9c-0.2-2.3-0.5-3.7-1-4.3c-0.5-0.6-1.3-0.8-2.3-0.8c-1.1,0.1-1.9,0.6-2.4,1.5
		c-0.5,0.9-0.7,2.2-0.5,3.9c0.2,2.2,0.7,3.9,1.4,4.9c0.7,1.1,2.6,2.3,5.6,3.6c8.6,3.8,14.2,7.1,16.6,9.9c2.4,2.7,3.9,7.4,4.4,13.9
		c0.4,4.7,0.1,8.3-0.9,10.6c-1,2.4-3.1,4.4-6.4,6.2c-3.3,1.8-7.2,2.9-11.7,3.3c-5,0.4-9.3-0.1-12.9-1.5c-3.7-1.4-6.2-3.5-7.5-6.1
		s-2.2-6.4-2.6-11.4l-0.4-4.4l17.2-1.5l0.7,8.1c0.2,2.5,0.6,4.1,1.1,4.7c0.5,0.7,1.4,0.9,2.7,0.8c1.2-0.1,2.1-0.6,2.6-1.6
		s0.7-2.3,0.6-4.1c-0.3-3.9-1.1-6.4-2.4-7.5s-4.3-2.9-9.2-5.3c-4.9-2.4-8.1-4.2-9.7-5.4s-3-2.8-4.2-5s-1.9-5-2.2-8.6
		c-0.4-5.1-0.1-8.9,1.1-11.4s3.3-4.5,6.3-6.1s6.7-2.6,11.1-3c4.8-0.4,9-0.1,12.5,1.1s5.9,2.8,7.2,4.9s2.2,5.8,2.6,11.1L137.9,45.3z"
		/>
</g>
</svg>
